<mxfile host="Electron" agent="Mozilla/5.0 (Windows NT 10.0; Win64; x64) AppleWebKit/537.36 (KHTML, like Gecko) draw.io/24.7.17 Chrome/128.0.6613.36 Electron/32.0.1 Safari/537.36" version="24.7.17" pages="2">
  <diagram id="4_HiMVkCXoyi9FSJJGeo" name="UML">
    <mxGraphModel dx="1434" dy="836" grid="1" gridSize="10" guides="1" tooltips="1" connect="1" arrows="1" fold="1" page="1" pageScale="1" pageWidth="827" pageHeight="1169" math="0" shadow="0">
      <root>
        <mxCell id="0" />
        <mxCell id="1" parent="0" />
        <mxCell id="Sw3pQj8816RREVTJxPYU-1" value="Escola" style="swimlane;fontStyle=0;childLayout=stackLayout;horizontal=1;startSize=30;horizontalStack=0;resizeParent=1;resizeParentMax=0;resizeLast=0;collapsible=1;marginBottom=0;whiteSpace=wrap;html=1;" parent="1" vertex="1">
          <mxGeometry x="60" y="295" width="140" height="120" as="geometry" />
        </mxCell>
        <mxCell id="Sw3pQj8816RREVTJxPYU-2" value="IDEscola" style="text;strokeColor=none;fillColor=none;align=left;verticalAlign=middle;spacingLeft=4;spacingRight=4;overflow=hidden;points=[[0,0.5],[1,0.5]];portConstraint=eastwest;rotatable=0;whiteSpace=wrap;html=1;" parent="Sw3pQj8816RREVTJxPYU-1" vertex="1">
          <mxGeometry y="30" width="140" height="30" as="geometry" />
        </mxCell>
        <mxCell id="Sw3pQj8816RREVTJxPYU-3" value="Nome" style="text;strokeColor=none;fillColor=none;align=left;verticalAlign=middle;spacingLeft=4;spacingRight=4;overflow=hidden;points=[[0,0.5],[1,0.5]];portConstraint=eastwest;rotatable=0;whiteSpace=wrap;html=1;" parent="Sw3pQj8816RREVTJxPYU-1" vertex="1">
          <mxGeometry y="60" width="140" height="30" as="geometry" />
        </mxCell>
        <mxCell id="Sw3pQj8816RREVTJxPYU-4" value="Sede" style="text;strokeColor=none;fillColor=none;align=left;verticalAlign=middle;spacingLeft=4;spacingRight=4;overflow=hidden;points=[[0,0.5],[1,0.5]];portConstraint=eastwest;rotatable=0;whiteSpace=wrap;html=1;" parent="Sw3pQj8816RREVTJxPYU-1" vertex="1">
          <mxGeometry y="90" width="140" height="30" as="geometry" />
        </mxCell>
        <mxCell id="Sw3pQj8816RREVTJxPYU-8" value="Agrupamento" style="swimlane;fontStyle=0;childLayout=stackLayout;horizontal=1;startSize=30;horizontalStack=0;resizeParent=1;resizeParentMax=0;resizeLast=0;collapsible=1;marginBottom=0;whiteSpace=wrap;html=1;" parent="1" vertex="1">
          <mxGeometry x="60" y="90" width="140" height="120" as="geometry" />
        </mxCell>
        <mxCell id="Sw3pQj8816RREVTJxPYU-9" value="IDAgrupamento" style="text;strokeColor=none;fillColor=none;align=left;verticalAlign=middle;spacingLeft=4;spacingRight=4;overflow=hidden;points=[[0,0.5],[1,0.5]];portConstraint=eastwest;rotatable=0;whiteSpace=wrap;html=1;" parent="Sw3pQj8816RREVTJxPYU-8" vertex="1">
          <mxGeometry y="30" width="140" height="30" as="geometry" />
        </mxCell>
        <mxCell id="Sw3pQj8816RREVTJxPYU-10" value="Nome" style="text;strokeColor=none;fillColor=none;align=left;verticalAlign=middle;spacingLeft=4;spacingRight=4;overflow=hidden;points=[[0,0.5],[1,0.5]];portConstraint=eastwest;rotatable=0;whiteSpace=wrap;html=1;" parent="Sw3pQj8816RREVTJxPYU-8" vertex="1">
          <mxGeometry y="60" width="140" height="30" as="geometry" />
        </mxCell>
        <mxCell id="Sw3pQj8816RREVTJxPYU-11" value="Sede" style="text;strokeColor=none;fillColor=none;align=left;verticalAlign=middle;spacingLeft=4;spacingRight=4;overflow=hidden;points=[[0,0.5],[1,0.5]];portConstraint=eastwest;rotatable=0;whiteSpace=wrap;html=1;" parent="Sw3pQj8816RREVTJxPYU-8" vertex="1">
          <mxGeometry y="90" width="140" height="30" as="geometry" />
        </mxCell>
        <mxCell id="Sw3pQj8816RREVTJxPYU-12" value="&lt;font style=&quot;font-size: 20px;&quot;&gt;0..1&lt;/font&gt;" style="text;html=1;align=center;verticalAlign=middle;whiteSpace=wrap;rounded=0;fontSize=30;" parent="1" vertex="1">
          <mxGeometry x="131" y="206" width="43" height="30" as="geometry" />
        </mxCell>
        <mxCell id="Sw3pQj8816RREVTJxPYU-13" value="Entidade" style="swimlane;fontStyle=0;childLayout=stackLayout;horizontal=1;startSize=30;horizontalStack=0;resizeParent=1;resizeParentMax=0;resizeLast=0;collapsible=1;marginBottom=0;whiteSpace=wrap;html=1;" parent="1" vertex="1">
          <mxGeometry x="240" y="90" width="140" height="60" as="geometry" />
        </mxCell>
        <mxCell id="Sw3pQj8816RREVTJxPYU-14" value="Nome" style="text;strokeColor=none;fillColor=none;align=left;verticalAlign=middle;spacingLeft=4;spacingRight=4;overflow=hidden;points=[[0,0.5],[1,0.5]];portConstraint=eastwest;rotatable=0;whiteSpace=wrap;html=1;" parent="Sw3pQj8816RREVTJxPYU-13" vertex="1">
          <mxGeometry y="30" width="140" height="30" as="geometry" />
        </mxCell>
        <mxCell id="Sw3pQj8816RREVTJxPYU-15" value="Turma" style="swimlane;fontStyle=0;childLayout=stackLayout;horizontal=1;startSize=30;horizontalStack=0;resizeParent=1;resizeParentMax=0;resizeLast=0;collapsible=1;marginBottom=0;whiteSpace=wrap;html=1;" parent="1" vertex="1">
          <mxGeometry x="440" y="205" width="140" height="300" as="geometry" />
        </mxCell>
        <mxCell id="Sw3pQj8816RREVTJxPYU-16" value="Curso" style="text;strokeColor=none;fillColor=none;align=left;verticalAlign=middle;spacingLeft=4;spacingRight=4;overflow=hidden;points=[[0,0.5],[1,0.5]];portConstraint=eastwest;rotatable=0;whiteSpace=wrap;html=1;" parent="Sw3pQj8816RREVTJxPYU-15" vertex="1">
          <mxGeometry y="30" width="140" height="30" as="geometry" />
        </mxCell>
        <mxCell id="Sw3pQj8816RREVTJxPYU-17" value="Ano de escolaridade" style="text;strokeColor=none;fillColor=none;align=left;verticalAlign=middle;spacingLeft=4;spacingRight=4;overflow=hidden;points=[[0,0.5],[1,0.5]];portConstraint=eastwest;rotatable=0;whiteSpace=wrap;html=1;" parent="Sw3pQj8816RREVTJxPYU-15" vertex="1">
          <mxGeometry y="60" width="140" height="30" as="geometry" />
        </mxCell>
        <mxCell id="Sw3pQj8816RREVTJxPYU-18" value="Nivel de ensino" style="text;strokeColor=none;fillColor=none;align=left;verticalAlign=middle;spacingLeft=4;spacingRight=4;overflow=hidden;points=[[0,0.5],[1,0.5]];portConstraint=eastwest;rotatable=0;whiteSpace=wrap;html=1;" parent="Sw3pQj8816RREVTJxPYU-15" vertex="1">
          <mxGeometry y="90" width="140" height="30" as="geometry" />
        </mxCell>
        <mxCell id="Sw3pQj8816RREVTJxPYU-19" value="Ciclo de estudos" style="text;strokeColor=none;fillColor=none;align=left;verticalAlign=middle;spacingLeft=4;spacingRight=4;overflow=hidden;points=[[0,0.5],[1,0.5]];portConstraint=eastwest;rotatable=0;whiteSpace=wrap;html=1;" parent="Sw3pQj8816RREVTJxPYU-15" vertex="1">
          <mxGeometry y="120" width="140" height="30" as="geometry" />
        </mxCell>
        <mxCell id="Sw3pQj8816RREVTJxPYU-20" value="Oferta" style="text;strokeColor=none;fillColor=none;align=left;verticalAlign=middle;spacingLeft=4;spacingRight=4;overflow=hidden;points=[[0,0.5],[1,0.5]];portConstraint=eastwest;rotatable=0;whiteSpace=wrap;html=1;" parent="Sw3pQj8816RREVTJxPYU-15" vertex="1">
          <mxGeometry y="150" width="140" height="30" as="geometry" />
        </mxCell>
        <mxCell id="Sw3pQj8816RREVTJxPYU-21" value="Organizacao" style="text;strokeColor=none;fillColor=none;align=left;verticalAlign=middle;spacingLeft=4;spacingRight=4;overflow=hidden;points=[[0,0.5],[1,0.5]];portConstraint=eastwest;rotatable=0;whiteSpace=wrap;html=1;" parent="Sw3pQj8816RREVTJxPYU-15" vertex="1">
          <mxGeometry y="180" width="140" height="30" as="geometry" />
        </mxCell>
        <mxCell id="Sw3pQj8816RREVTJxPYU-6" value="Tipologia" style="text;strokeColor=none;fillColor=none;align=left;verticalAlign=middle;spacingLeft=4;spacingRight=4;overflow=hidden;points=[[0,0.5],[1,0.5]];portConstraint=eastwest;rotatable=0;whiteSpace=wrap;html=1;" parent="Sw3pQj8816RREVTJxPYU-15" vertex="1">
          <mxGeometry y="210" width="140" height="30" as="geometry" />
        </mxCell>
        <mxCell id="Sw3pQj8816RREVTJxPYU-5" value="Natureza" style="text;strokeColor=none;fillColor=none;align=left;verticalAlign=middle;spacingLeft=4;spacingRight=4;overflow=hidden;points=[[0,0.5],[1,0.5]];portConstraint=eastwest;rotatable=0;whiteSpace=wrap;html=1;" parent="Sw3pQj8816RREVTJxPYU-15" vertex="1">
          <mxGeometry y="240" width="140" height="30" as="geometry" />
        </mxCell>
        <mxCell id="Sw3pQj8816RREVTJxPYU-7" value="Orientacao" style="text;strokeColor=none;fillColor=none;align=left;verticalAlign=middle;spacingLeft=4;spacingRight=4;overflow=hidden;points=[[0,0.5],[1,0.5]];portConstraint=eastwest;rotatable=0;whiteSpace=wrap;html=1;" parent="Sw3pQj8816RREVTJxPYU-15" vertex="1">
          <mxGeometry y="270" width="140" height="30" as="geometry" />
        </mxCell>
        <mxCell id="Sw3pQj8816RREVTJxPYU-22" value="Alunos" style="swimlane;fontStyle=0;childLayout=stackLayout;horizontal=1;startSize=30;horizontalStack=0;resizeParent=1;resizeParentMax=0;resizeLast=0;collapsible=1;marginBottom=0;whiteSpace=wrap;html=1;" parent="1" vertex="1">
          <mxGeometry x="650" y="325" width="140" height="90" as="geometry" />
        </mxCell>
        <mxCell id="Sw3pQj8816RREVTJxPYU-23" value="Sexo" style="text;strokeColor=none;fillColor=none;align=left;verticalAlign=middle;spacingLeft=4;spacingRight=4;overflow=hidden;points=[[0,0.5],[1,0.5]];portConstraint=eastwest;rotatable=0;whiteSpace=wrap;html=1;" parent="Sw3pQj8816RREVTJxPYU-22" vertex="1">
          <mxGeometry y="30" width="140" height="30" as="geometry" />
        </mxCell>
        <mxCell id="Sw3pQj8816RREVTJxPYU-24" value="Quantidade" style="text;strokeColor=none;fillColor=none;align=left;verticalAlign=middle;spacingLeft=4;spacingRight=4;overflow=hidden;points=[[0,0.5],[1,0.5]];portConstraint=eastwest;rotatable=0;whiteSpace=wrap;html=1;" parent="Sw3pQj8816RREVTJxPYU-22" vertex="1">
          <mxGeometry y="60" width="140" height="30" as="geometry" />
        </mxCell>
        <mxCell id="Mi5be7rIs6VHSqzokQpN-2" style="edgeStyle=orthogonalEdgeStyle;rounded=0;orthogonalLoop=1;jettySize=auto;html=1;exitX=1;exitY=0.5;exitDx=0;exitDy=0;entryX=0;entryY=0.5;entryDx=0;entryDy=0;strokeColor=default;strokeWidth=1;endArrow=none;endFill=0;" parent="1" source="Sw3pQj8816RREVTJxPYU-25" target="Sw3pQj8816RREVTJxPYU-21" edge="1">
          <mxGeometry relative="1" as="geometry" />
        </mxCell>
        <mxCell id="Sw3pQj8816RREVTJxPYU-25" value="" style="rhombus;whiteSpace=wrap;html=1;" parent="1" vertex="1">
          <mxGeometry x="200" y="386.5" width="25" height="25" as="geometry" />
        </mxCell>
        <mxCell id="Sw3pQj8816RREVTJxPYU-26" value="&lt;font style=&quot;font-size: 20px;&quot;&gt;1..*&lt;/font&gt;" style="text;html=1;align=center;verticalAlign=middle;whiteSpace=wrap;rounded=0;fontSize=30;" parent="1" vertex="1">
          <mxGeometry x="404" y="367" width="34" height="30" as="geometry" />
        </mxCell>
        <mxCell id="Sw3pQj8816RREVTJxPYU-27" value="&lt;span style=&quot;font-size: 20px;&quot;&gt;1&lt;/span&gt;" style="text;html=1;align=center;verticalAlign=middle;whiteSpace=wrap;rounded=0;fontSize=30;" parent="1" vertex="1">
          <mxGeometry x="580" y="350" width="15" height="30" as="geometry" />
        </mxCell>
        <mxCell id="Sw3pQj8816RREVTJxPYU-28" value="&lt;span style=&quot;font-size: 20px;&quot;&gt;2&lt;/span&gt;" style="text;html=1;align=center;verticalAlign=middle;whiteSpace=wrap;rounded=0;fontSize=30;" parent="1" vertex="1">
          <mxGeometry x="635" y="350" width="15" height="30" as="geometry" />
        </mxCell>
        <mxCell id="Sw3pQj8816RREVTJxPYU-29" value="&lt;span style=&quot;font-size: 20px;&quot;&gt;1&lt;/span&gt;" style="text;html=1;align=center;verticalAlign=middle;whiteSpace=wrap;rounded=0;fontSize=30;" parent="1" vertex="1">
          <mxGeometry x="225" y="367" width="15" height="30" as="geometry" />
        </mxCell>
        <mxCell id="Sw3pQj8816RREVTJxPYU-30" value="&lt;span style=&quot;font-size: 20px;&quot;&gt;1&lt;/span&gt;" style="text;html=1;align=center;verticalAlign=middle;whiteSpace=wrap;rounded=0;fontSize=30;" parent="1" vertex="1">
          <mxGeometry x="314" y="146" width="10" height="27" as="geometry" />
        </mxCell>
        <mxCell id="Sw3pQj8816RREVTJxPYU-33" value="" style="endArrow=none;html=1;rounded=0;exitX=1;exitY=0.5;exitDx=0;exitDy=0;entryX=0.497;entryY=0.997;entryDx=0;entryDy=0;entryPerimeter=0;" parent="1" source="Sw3pQj8816RREVTJxPYU-2" target="Sw3pQj8816RREVTJxPYU-14" edge="1">
          <mxGeometry width="50" height="50" relative="1" as="geometry">
            <mxPoint x="240" y="350" as="sourcePoint" />
            <mxPoint x="290" y="300" as="targetPoint" />
            <Array as="points">
              <mxPoint x="310" y="340" />
            </Array>
          </mxGeometry>
        </mxCell>
        <mxCell id="Sw3pQj8816RREVTJxPYU-34" value="&lt;span style=&quot;font-size: 20px;&quot;&gt;1..*&lt;/span&gt;" style="text;html=1;align=center;verticalAlign=middle;whiteSpace=wrap;rounded=0;fontSize=30;" parent="1" vertex="1">
          <mxGeometry x="203.5" y="311" width="36.5" height="27" as="geometry" />
        </mxCell>
        <mxCell id="Sw3pQj8816RREVTJxPYU-35" value="Localização" style="swimlane;fontStyle=0;childLayout=stackLayout;horizontal=1;startSize=30;horizontalStack=0;resizeParent=1;resizeParentMax=0;resizeLast=0;collapsible=1;marginBottom=0;whiteSpace=wrap;html=1;" parent="1" vertex="1">
          <mxGeometry x="59.25" y="497" width="140" height="150" as="geometry" />
        </mxCell>
        <mxCell id="Sw3pQj8816RREVTJxPYU-36" value="Concelho" style="text;strokeColor=none;fillColor=none;align=left;verticalAlign=middle;spacingLeft=4;spacingRight=4;overflow=hidden;points=[[0,0.5],[1,0.5]];portConstraint=eastwest;rotatable=0;whiteSpace=wrap;html=1;" parent="Sw3pQj8816RREVTJxPYU-35" vertex="1">
          <mxGeometry y="30" width="140" height="30" as="geometry" />
        </mxCell>
        <mxCell id="Sw3pQj8816RREVTJxPYU-37" value="Distrito" style="text;strokeColor=none;fillColor=none;align=left;verticalAlign=middle;spacingLeft=4;spacingRight=4;overflow=hidden;points=[[0,0.5],[1,0.5]];portConstraint=eastwest;rotatable=0;whiteSpace=wrap;html=1;" parent="Sw3pQj8816RREVTJxPYU-35" vertex="1">
          <mxGeometry y="60" width="140" height="30" as="geometry" />
        </mxCell>
        <mxCell id="Sw3pQj8816RREVTJxPYU-38" value="NUTS III" style="text;strokeColor=none;fillColor=none;align=left;verticalAlign=middle;spacingLeft=4;spacingRight=4;overflow=hidden;points=[[0,0.5],[1,0.5]];portConstraint=eastwest;rotatable=0;whiteSpace=wrap;html=1;" parent="Sw3pQj8816RREVTJxPYU-35" vertex="1">
          <mxGeometry y="90" width="140" height="30" as="geometry" />
        </mxCell>
        <mxCell id="Sw3pQj8816RREVTJxPYU-39" value="NUTS II" style="text;strokeColor=none;fillColor=none;align=left;verticalAlign=middle;spacingLeft=4;spacingRight=4;overflow=hidden;points=[[0,0.5],[1,0.5]];portConstraint=eastwest;rotatable=0;whiteSpace=wrap;html=1;" parent="Sw3pQj8816RREVTJxPYU-35" vertex="1">
          <mxGeometry y="120" width="140" height="30" as="geometry" />
        </mxCell>
        <mxCell id="Sw3pQj8816RREVTJxPYU-40" value="&lt;font style=&quot;font-size: 20px;&quot;&gt;1&lt;/font&gt;" style="text;html=1;align=center;verticalAlign=middle;whiteSpace=wrap;rounded=0;fontSize=30;" parent="1" vertex="1">
          <mxGeometry x="130.25" y="460" width="20" height="30" as="geometry" />
        </mxCell>
        <mxCell id="Sw3pQj8816RREVTJxPYU-46" value="" style="endArrow=none;html=1;rounded=0;entryX=0.5;entryY=0;entryDx=0;entryDy=0;exitX=0.499;exitY=0.936;exitDx=0;exitDy=0;exitPerimeter=0;" parent="1" source="Sw3pQj8816RREVTJxPYU-4" target="Sw3pQj8816RREVTJxPYU-35" edge="1">
          <mxGeometry width="50" height="50" relative="1" as="geometry">
            <mxPoint x="140" y="220" as="sourcePoint" />
            <mxPoint x="140" y="305" as="targetPoint" />
          </mxGeometry>
        </mxCell>
        <mxCell id="5JgDcV6UrLc10HdN5GTf-2" value="" style="endArrow=none;html=1;rounded=0;exitX=0.499;exitY=0.974;exitDx=0;exitDy=0;entryX=0.5;entryY=0;entryDx=0;entryDy=0;exitPerimeter=0;" parent="1" source="Sw3pQj8816RREVTJxPYU-11" target="Sw3pQj8816RREVTJxPYU-1" edge="1">
          <mxGeometry width="50" height="50" relative="1" as="geometry">
            <mxPoint x="130" y="235" as="sourcePoint" />
            <mxPoint x="130" y="290" as="targetPoint" />
          </mxGeometry>
        </mxCell>
        <mxCell id="K2PBEnKt26v_oHdfK94S-1" value="&lt;font style=&quot;font-size: 20px;&quot;&gt;1&lt;/font&gt;" style="text;html=1;align=center;verticalAlign=middle;whiteSpace=wrap;rounded=0;fontSize=30;" parent="1" vertex="1">
          <mxGeometry x="131" y="264" width="20" height="30" as="geometry" />
        </mxCell>
        <mxCell id="HJIzmcquACU5dftJ3Wm8-2" value="" style="endArrow=none;html=1;rounded=0;entryX=-0.005;entryY=0.828;entryDx=0;entryDy=0;entryPerimeter=0;exitX=1.002;exitY=0.817;exitDx=0;exitDy=0;exitPerimeter=0;" parent="1" source="Sw3pQj8816RREVTJxPYU-20" target="Sw3pQj8816RREVTJxPYU-23" edge="1">
          <mxGeometry width="50" height="50" relative="1" as="geometry">
            <mxPoint x="500" y="390" as="sourcePoint" />
            <mxPoint x="550" y="340" as="targetPoint" />
          </mxGeometry>
        </mxCell>
        <mxCell id="HJIzmcquACU5dftJ3Wm8-3" value="EntidadeEscola" style="swimlane;fontStyle=0;childLayout=stackLayout;horizontal=1;startSize=30;horizontalStack=0;resizeParent=1;resizeParentMax=0;resizeLast=0;collapsible=1;marginBottom=0;whiteSpace=wrap;html=1;" parent="1" vertex="1">
          <mxGeometry x="439" y="587" width="140" height="60" as="geometry" />
        </mxCell>
        <mxCell id="HJIzmcquACU5dftJ3Wm8-4" value="Nome" style="text;strokeColor=none;fillColor=none;align=left;verticalAlign=middle;spacingLeft=4;spacingRight=4;overflow=hidden;points=[[0,0.5],[1,0.5]];portConstraint=eastwest;rotatable=0;whiteSpace=wrap;html=1;" parent="HJIzmcquACU5dftJ3Wm8-3" vertex="1">
          <mxGeometry y="30" width="140" height="30" as="geometry" />
        </mxCell>
        <mxCell id="Mi5be7rIs6VHSqzokQpN-1" value="" style="endArrow=none;html=1;rounded=0;exitX=0.5;exitY=0;exitDx=0;exitDy=0;" parent="1" source="HJIzmcquACU5dftJ3Wm8-3" target="Sw3pQj8816RREVTJxPYU-7" edge="1">
          <mxGeometry width="50" height="50" relative="1" as="geometry">
            <mxPoint x="310" y="530" as="sourcePoint" />
            <mxPoint x="360" y="480" as="targetPoint" />
          </mxGeometry>
        </mxCell>
        <mxCell id="Mi5be7rIs6VHSqzokQpN-3" value="&lt;font style=&quot;font-size: 20px;&quot;&gt;1&lt;/font&gt;" style="text;html=1;align=center;verticalAlign=middle;whiteSpace=wrap;rounded=0;fontSize=30;" parent="1" vertex="1">
          <mxGeometry x="131" y="415" width="20" height="30" as="geometry" />
        </mxCell>
        <mxCell id="Mi5be7rIs6VHSqzokQpN-4" value="&lt;font style=&quot;font-size: 20px;&quot;&gt;1&lt;/font&gt;" style="text;html=1;align=center;verticalAlign=middle;whiteSpace=wrap;rounded=0;fontSize=30;" parent="1" vertex="1">
          <mxGeometry x="199.25" y="602" width="20" height="30" as="geometry" />
        </mxCell>
        <mxCell id="Mi5be7rIs6VHSqzokQpN-5" value="&lt;font style=&quot;font-size: 20px;&quot;&gt;1&lt;/font&gt;" style="text;html=1;align=center;verticalAlign=middle;whiteSpace=wrap;rounded=0;fontSize=30;" parent="1" vertex="1">
          <mxGeometry x="413" y="595" width="20" height="30" as="geometry" />
        </mxCell>
        <mxCell id="Mi5be7rIs6VHSqzokQpN-6" value="&lt;font style=&quot;font-size: 20px;&quot;&gt;0..1&lt;/font&gt;" style="text;html=1;align=center;verticalAlign=middle;whiteSpace=wrap;rounded=0;fontSize=30;" parent="1" vertex="1">
          <mxGeometry x="466" y="557" width="43" height="30" as="geometry" />
        </mxCell>
        <mxCell id="Mi5be7rIs6VHSqzokQpN-8" value="&lt;font style=&quot;font-size: 20px;&quot;&gt;1&lt;/font&gt;" style="text;html=1;align=center;verticalAlign=middle;whiteSpace=wrap;rounded=0;fontSize=30;" parent="1" vertex="1">
          <mxGeometry x="490" y="505" width="20" height="30" as="geometry" />
        </mxCell>
        <mxCell id="Mi5be7rIs6VHSqzokQpN-9" style="edgeStyle=orthogonalEdgeStyle;rounded=0;orthogonalLoop=1;jettySize=auto;html=1;exitX=0;exitY=0.5;exitDx=0;exitDy=0;entryX=1;entryY=0.5;entryDx=0;entryDy=0;endArrow=none;endFill=0;" parent="1" source="HJIzmcquACU5dftJ3Wm8-4" target="Sw3pQj8816RREVTJxPYU-39" edge="1">
          <mxGeometry relative="1" as="geometry" />
        </mxCell>
      </root>
    </mxGraphModel>
  </diagram>
  <diagram id="MKUwMZMv-kjZ6S5p5n__" name="Relacional">
    <mxGraphModel dx="1221" dy="823" grid="1" gridSize="10" guides="1" tooltips="1" connect="1" arrows="1" fold="1" page="1" pageScale="1" pageWidth="827" pageHeight="1169" math="0" shadow="0">
      <root>
        <mxCell id="0" />
        <mxCell id="1" parent="0" />
        <mxCell id="HBgyyXUhadhm95LxqLLa-24" style="edgeStyle=orthogonalEdgeStyle;rounded=0;orthogonalLoop=1;jettySize=auto;html=1;exitX=1;exitY=0.5;exitDx=0;exitDy=0;entryX=0;entryY=0.5;entryDx=0;entryDy=0;" parent="1" source="n4LRzQkcnblddQg76t_k-48" target="HBgyyXUhadhm95LxqLLa-3" edge="1">
          <mxGeometry relative="1" as="geometry" />
        </mxCell>
        <mxCell id="NorvrO7SsuZGPJmOGKaD-20" value="Agrupamentos" style="shape=table;startSize=30;container=1;collapsible=1;childLayout=tableLayout;fixedRows=1;rowLines=0;fontStyle=1;align=center;resizeLast=1;html=1;" parent="1" vertex="1">
          <mxGeometry x="70" y="380" width="220" height="120" as="geometry" />
        </mxCell>
        <mxCell id="NorvrO7SsuZGPJmOGKaD-21" value="" style="shape=tableRow;horizontal=0;startSize=0;swimlaneHead=0;swimlaneBody=0;fillColor=none;collapsible=0;dropTarget=0;points=[[0,0.5],[1,0.5]];portConstraint=eastwest;top=0;left=0;right=0;bottom=1;" parent="NorvrO7SsuZGPJmOGKaD-20" vertex="1">
          <mxGeometry y="30" width="220" height="30" as="geometry" />
        </mxCell>
        <mxCell id="NorvrO7SsuZGPJmOGKaD-22" value="PK" style="shape=partialRectangle;connectable=0;fillColor=none;top=0;left=0;bottom=0;right=0;fontStyle=1;overflow=hidden;whiteSpace=wrap;html=1;" parent="NorvrO7SsuZGPJmOGKaD-21" vertex="1">
          <mxGeometry width="50.000000000000114" height="30" as="geometry">
            <mxRectangle width="50.000000000000114" height="30" as="alternateBounds" />
          </mxGeometry>
        </mxCell>
        <mxCell id="NorvrO7SsuZGPJmOGKaD-23" value="cod: int" style="shape=partialRectangle;connectable=0;fillColor=none;top=0;left=0;bottom=0;right=0;align=left;spacingLeft=6;fontStyle=5;overflow=hidden;whiteSpace=wrap;html=1;" parent="NorvrO7SsuZGPJmOGKaD-21" vertex="1">
          <mxGeometry x="50.000000000000114" width="169.9999999999999" height="30" as="geometry">
            <mxRectangle width="169.9999999999999" height="30" as="alternateBounds" />
          </mxGeometry>
        </mxCell>
        <mxCell id="n4LRzQkcnblddQg76t_k-1" value="" style="shape=tableRow;horizontal=0;startSize=0;swimlaneHead=0;swimlaneBody=0;fillColor=none;collapsible=0;dropTarget=0;points=[[0,0.5],[1,0.5]];portConstraint=eastwest;top=0;left=0;right=0;bottom=1;" parent="NorvrO7SsuZGPJmOGKaD-20" vertex="1">
          <mxGeometry y="60" width="220" height="30" as="geometry" />
        </mxCell>
        <mxCell id="n4LRzQkcnblddQg76t_k-2" value="PK,FK1" style="shape=partialRectangle;connectable=0;fillColor=none;top=0;left=0;bottom=0;right=0;fontStyle=1;overflow=hidden;whiteSpace=wrap;html=1;" parent="n4LRzQkcnblddQg76t_k-1" vertex="1">
          <mxGeometry width="50.000000000000114" height="30" as="geometry">
            <mxRectangle width="50.000000000000114" height="30" as="alternateBounds" />
          </mxGeometry>
        </mxCell>
        <mxCell id="n4LRzQkcnblddQg76t_k-3" value="codSede: int" style="shape=partialRectangle;connectable=0;fillColor=none;top=0;left=0;bottom=0;right=0;align=left;spacingLeft=6;fontStyle=5;overflow=hidden;whiteSpace=wrap;html=1;" parent="n4LRzQkcnblddQg76t_k-1" vertex="1">
          <mxGeometry x="50.000000000000114" width="169.9999999999999" height="30" as="geometry">
            <mxRectangle width="169.9999999999999" height="30" as="alternateBounds" />
          </mxGeometry>
        </mxCell>
        <mxCell id="NorvrO7SsuZGPJmOGKaD-24" value="" style="shape=tableRow;horizontal=0;startSize=0;swimlaneHead=0;swimlaneBody=0;fillColor=none;collapsible=0;dropTarget=0;points=[[0,0.5],[1,0.5]];portConstraint=eastwest;top=0;left=0;right=0;bottom=0;" parent="NorvrO7SsuZGPJmOGKaD-20" vertex="1">
          <mxGeometry y="90" width="220" height="30" as="geometry" />
        </mxCell>
        <mxCell id="NorvrO7SsuZGPJmOGKaD-25" value="" style="shape=partialRectangle;connectable=0;fillColor=none;top=0;left=0;bottom=0;right=0;editable=1;overflow=hidden;whiteSpace=wrap;html=1;" parent="NorvrO7SsuZGPJmOGKaD-24" vertex="1">
          <mxGeometry width="50.000000000000114" height="30" as="geometry">
            <mxRectangle width="50.000000000000114" height="30" as="alternateBounds" />
          </mxGeometry>
        </mxCell>
        <mxCell id="NorvrO7SsuZGPJmOGKaD-26" value="agrupamento: varchar(75)" style="shape=partialRectangle;connectable=0;fillColor=none;top=0;left=0;bottom=0;right=0;align=left;spacingLeft=6;overflow=hidden;whiteSpace=wrap;html=1;" parent="NorvrO7SsuZGPJmOGKaD-24" vertex="1">
          <mxGeometry x="50.000000000000114" width="169.9999999999999" height="30" as="geometry">
            <mxRectangle width="169.9999999999999" height="30" as="alternateBounds" />
          </mxGeometry>
        </mxCell>
        <mxCell id="n4LRzQkcnblddQg76t_k-41" value="Escola&amp;nbsp;" style="shape=table;startSize=30;container=1;collapsible=1;childLayout=tableLayout;fixedRows=1;rowLines=0;fontStyle=1;align=center;resizeLast=1;html=1;" parent="1" vertex="1">
          <mxGeometry x="380" y="410" width="220" height="180" as="geometry" />
        </mxCell>
        <mxCell id="n4LRzQkcnblddQg76t_k-42" value="" style="shape=tableRow;horizontal=0;startSize=0;swimlaneHead=0;swimlaneBody=0;fillColor=none;collapsible=0;dropTarget=0;points=[[0,0.5],[1,0.5]];portConstraint=eastwest;top=0;left=0;right=0;bottom=1;" parent="n4LRzQkcnblddQg76t_k-41" vertex="1">
          <mxGeometry y="30" width="220" height="30" as="geometry" />
        </mxCell>
        <mxCell id="n4LRzQkcnblddQg76t_k-43" value="PK" style="shape=partialRectangle;connectable=0;fillColor=none;top=0;left=0;bottom=0;right=0;fontStyle=1;overflow=hidden;whiteSpace=wrap;html=1;" parent="n4LRzQkcnblddQg76t_k-42" vertex="1">
          <mxGeometry width="50.000000000000114" height="30" as="geometry">
            <mxRectangle width="50.000000000000114" height="30" as="alternateBounds" />
          </mxGeometry>
        </mxCell>
        <mxCell id="n4LRzQkcnblddQg76t_k-44" value="cod: int" style="shape=partialRectangle;connectable=0;fillColor=none;top=0;left=0;bottom=0;right=0;align=left;spacingLeft=6;fontStyle=5;overflow=hidden;whiteSpace=wrap;html=1;" parent="n4LRzQkcnblddQg76t_k-42" vertex="1">
          <mxGeometry x="50.000000000000114" width="169.9999999999999" height="30" as="geometry">
            <mxRectangle width="169.9999999999999" height="30" as="alternateBounds" />
          </mxGeometry>
        </mxCell>
        <mxCell id="n4LRzQkcnblddQg76t_k-48" value="" style="shape=tableRow;horizontal=0;startSize=0;swimlaneHead=0;swimlaneBody=0;fillColor=none;collapsible=0;dropTarget=0;points=[[0,0.5],[1,0.5]];portConstraint=eastwest;top=0;left=0;right=0;bottom=0;" parent="n4LRzQkcnblddQg76t_k-41" vertex="1">
          <mxGeometry y="60" width="220" height="30" as="geometry" />
        </mxCell>
        <mxCell id="n4LRzQkcnblddQg76t_k-49" value="FK1" style="shape=partialRectangle;connectable=0;fillColor=none;top=0;left=0;bottom=0;right=0;editable=1;overflow=hidden;whiteSpace=wrap;html=1;" parent="n4LRzQkcnblddQg76t_k-48" vertex="1">
          <mxGeometry width="50.000000000000114" height="30" as="geometry">
            <mxRectangle width="50.000000000000114" height="30" as="alternateBounds" />
          </mxGeometry>
        </mxCell>
        <mxCell id="n4LRzQkcnblddQg76t_k-50" value="entidade: varchar(110)" style="shape=partialRectangle;connectable=0;fillColor=none;top=0;left=0;bottom=0;right=0;align=left;spacingLeft=6;overflow=hidden;whiteSpace=wrap;html=1;" parent="n4LRzQkcnblddQg76t_k-48" vertex="1">
          <mxGeometry x="50.000000000000114" width="169.9999999999999" height="30" as="geometry">
            <mxRectangle width="169.9999999999999" height="30" as="alternateBounds" />
          </mxGeometry>
        </mxCell>
        <mxCell id="I8ep4knIVbzr4iCOStzU-1" value="" style="shape=tableRow;horizontal=0;startSize=0;swimlaneHead=0;swimlaneBody=0;fillColor=none;collapsible=0;dropTarget=0;points=[[0,0.5],[1,0.5]];portConstraint=eastwest;top=0;left=0;right=0;bottom=0;" parent="n4LRzQkcnblddQg76t_k-41" vertex="1">
          <mxGeometry y="90" width="220" height="30" as="geometry" />
        </mxCell>
        <mxCell id="I8ep4knIVbzr4iCOStzU-2" value="" style="shape=partialRectangle;connectable=0;fillColor=none;top=0;left=0;bottom=0;right=0;editable=1;overflow=hidden;whiteSpace=wrap;html=1;" parent="I8ep4knIVbzr4iCOStzU-1" vertex="1">
          <mxGeometry width="50.000000000000114" height="30" as="geometry">
            <mxRectangle width="50.000000000000114" height="30" as="alternateBounds" />
          </mxGeometry>
        </mxCell>
        <mxCell id="I8ep4knIVbzr4iCOStzU-3" value="escola: varchar(165)" style="shape=partialRectangle;connectable=0;fillColor=none;top=0;left=0;bottom=0;right=0;align=left;spacingLeft=6;overflow=hidden;whiteSpace=wrap;html=1;" parent="I8ep4knIVbzr4iCOStzU-1" vertex="1">
          <mxGeometry x="50.000000000000114" width="169.9999999999999" height="30" as="geometry">
            <mxRectangle width="169.9999999999999" height="30" as="alternateBounds" />
          </mxGeometry>
        </mxCell>
        <mxCell id="I8ep4knIVbzr4iCOStzU-4" value="" style="shape=tableRow;horizontal=0;startSize=0;swimlaneHead=0;swimlaneBody=0;fillColor=none;collapsible=0;dropTarget=0;points=[[0,0.5],[1,0.5]];portConstraint=eastwest;top=0;left=0;right=0;bottom=0;" parent="n4LRzQkcnblddQg76t_k-41" vertex="1">
          <mxGeometry y="120" width="220" height="30" as="geometry" />
        </mxCell>
        <mxCell id="I8ep4knIVbzr4iCOStzU-5" value="FK2*" style="shape=partialRectangle;connectable=0;fillColor=none;top=0;left=0;bottom=0;right=0;editable=1;overflow=hidden;whiteSpace=wrap;html=1;" parent="I8ep4knIVbzr4iCOStzU-4" vertex="1">
          <mxGeometry width="50.000000000000114" height="30" as="geometry">
            <mxRectangle width="50.000000000000114" height="30" as="alternateBounds" />
          </mxGeometry>
        </mxCell>
        <mxCell id="I8ep4knIVbzr4iCOStzU-6" value="agrupamento: int" style="shape=partialRectangle;connectable=0;fillColor=none;top=0;left=0;bottom=0;right=0;align=left;spacingLeft=6;overflow=hidden;whiteSpace=wrap;html=1;" parent="I8ep4knIVbzr4iCOStzU-4" vertex="1">
          <mxGeometry x="50.000000000000114" width="169.9999999999999" height="30" as="geometry">
            <mxRectangle width="169.9999999999999" height="30" as="alternateBounds" />
          </mxGeometry>
        </mxCell>
        <mxCell id="6HBEej55yQJjmta1yhJ1-1" value="" style="shape=tableRow;horizontal=0;startSize=0;swimlaneHead=0;swimlaneBody=0;fillColor=none;collapsible=0;dropTarget=0;points=[[0,0.5],[1,0.5]];portConstraint=eastwest;top=0;left=0;right=0;bottom=0;" parent="n4LRzQkcnblddQg76t_k-41" vertex="1">
          <mxGeometry y="150" width="220" height="30" as="geometry" />
        </mxCell>
        <mxCell id="6HBEej55yQJjmta1yhJ1-2" value="FK3" style="shape=partialRectangle;connectable=0;fillColor=none;top=0;left=0;bottom=0;right=0;editable=1;overflow=hidden;whiteSpace=wrap;html=1;" parent="6HBEej55yQJjmta1yhJ1-1" vertex="1">
          <mxGeometry width="50.000000000000114" height="30" as="geometry">
            <mxRectangle width="50.000000000000114" height="30" as="alternateBounds" />
          </mxGeometry>
        </mxCell>
        <mxCell id="6HBEej55yQJjmta1yhJ1-3" value="concelho: int" style="shape=partialRectangle;connectable=0;fillColor=none;top=0;left=0;bottom=0;right=0;align=left;spacingLeft=6;overflow=hidden;whiteSpace=wrap;html=1;" parent="6HBEej55yQJjmta1yhJ1-1" vertex="1">
          <mxGeometry x="50.000000000000114" width="169.9999999999999" height="30" as="geometry">
            <mxRectangle width="169.9999999999999" height="30" as="alternateBounds" />
          </mxGeometry>
        </mxCell>
        <mxCell id="n4LRzQkcnblddQg76t_k-53" value="Turmas" style="shape=table;startSize=30;container=1;collapsible=1;childLayout=tableLayout;fixedRows=1;rowLines=0;fontStyle=1;align=center;resizeLast=1;html=1;" parent="1" vertex="1">
          <mxGeometry x="319" y="660" width="220" height="390" as="geometry" />
        </mxCell>
        <mxCell id="n4LRzQkcnblddQg76t_k-54" value="" style="shape=tableRow;horizontal=0;startSize=0;swimlaneHead=0;swimlaneBody=0;fillColor=none;collapsible=0;dropTarget=0;points=[[0,0.5],[1,0.5]];portConstraint=eastwest;top=0;left=0;right=0;bottom=1;" parent="n4LRzQkcnblddQg76t_k-53" vertex="1">
          <mxGeometry y="30" width="220" height="30" as="geometry" />
        </mxCell>
        <mxCell id="n4LRzQkcnblddQg76t_k-55" value="PK" style="shape=partialRectangle;connectable=0;fillColor=none;top=0;left=0;bottom=0;right=0;fontStyle=1;overflow=hidden;whiteSpace=wrap;html=1;" parent="n4LRzQkcnblddQg76t_k-54" vertex="1">
          <mxGeometry width="50.000000000000114" height="30" as="geometry">
            <mxRectangle width="50.000000000000114" height="30" as="alternateBounds" />
          </mxGeometry>
        </mxCell>
        <mxCell id="n4LRzQkcnblddQg76t_k-56" value="cod: int" style="shape=partialRectangle;connectable=0;fillColor=none;top=0;left=0;bottom=0;right=0;align=left;spacingLeft=6;fontStyle=5;overflow=hidden;whiteSpace=wrap;html=1;" parent="n4LRzQkcnblddQg76t_k-54" vertex="1">
          <mxGeometry x="50.000000000000114" width="169.9999999999999" height="30" as="geometry">
            <mxRectangle width="169.9999999999999" height="30" as="alternateBounds" />
          </mxGeometry>
        </mxCell>
        <mxCell id="n4LRzQkcnblddQg76t_k-63" value="" style="shape=tableRow;horizontal=0;startSize=0;swimlaneHead=0;swimlaneBody=0;fillColor=none;collapsible=0;dropTarget=0;points=[[0,0.5],[1,0.5]];portConstraint=eastwest;top=0;left=0;right=0;bottom=0;" parent="n4LRzQkcnblddQg76t_k-53" vertex="1">
          <mxGeometry y="60" width="220" height="30" as="geometry" />
        </mxCell>
        <mxCell id="n4LRzQkcnblddQg76t_k-64" value="FK1*" style="shape=partialRectangle;connectable=0;fillColor=none;top=0;left=0;bottom=0;right=0;editable=1;overflow=hidden;whiteSpace=wrap;html=1;" parent="n4LRzQkcnblddQg76t_k-63" vertex="1">
          <mxGeometry width="50.000000000000114" height="30" as="geometry">
            <mxRectangle width="50.000000000000114" height="30" as="alternateBounds" />
          </mxGeometry>
        </mxCell>
        <mxCell id="n4LRzQkcnblddQg76t_k-65" value="escola: int" style="shape=partialRectangle;connectable=0;fillColor=none;top=0;left=0;bottom=0;right=0;align=left;spacingLeft=6;overflow=hidden;whiteSpace=wrap;html=1;" parent="n4LRzQkcnblddQg76t_k-63" vertex="1">
          <mxGeometry x="50.000000000000114" width="169.9999999999999" height="30" as="geometry">
            <mxRectangle width="169.9999999999999" height="30" as="alternateBounds" />
          </mxGeometry>
        </mxCell>
        <mxCell id="n4LRzQkcnblddQg76t_k-66" value="" style="shape=tableRow;horizontal=0;startSize=0;swimlaneHead=0;swimlaneBody=0;fillColor=none;collapsible=0;dropTarget=0;points=[[0,0.5],[1,0.5]];portConstraint=eastwest;top=0;left=0;right=0;bottom=0;" parent="n4LRzQkcnblddQg76t_k-53" vertex="1">
          <mxGeometry y="90" width="220" height="30" as="geometry" />
        </mxCell>
        <mxCell id="n4LRzQkcnblddQg76t_k-67" value="" style="shape=partialRectangle;connectable=0;fillColor=none;top=0;left=0;bottom=0;right=0;editable=1;overflow=hidden;whiteSpace=wrap;html=1;" parent="n4LRzQkcnblddQg76t_k-66" vertex="1">
          <mxGeometry width="50.000000000000114" height="30" as="geometry">
            <mxRectangle width="50.000000000000114" height="30" as="alternateBounds" />
          </mxGeometry>
        </mxCell>
        <mxCell id="n4LRzQkcnblddQg76t_k-68" value="natureza: varchar(30)" style="shape=partialRectangle;connectable=0;fillColor=none;top=0;left=0;bottom=0;right=0;align=left;spacingLeft=6;overflow=hidden;whiteSpace=wrap;html=1;" parent="n4LRzQkcnblddQg76t_k-66" vertex="1">
          <mxGeometry x="50.000000000000114" width="169.9999999999999" height="30" as="geometry">
            <mxRectangle width="169.9999999999999" height="30" as="alternateBounds" />
          </mxGeometry>
        </mxCell>
        <mxCell id="n4LRzQkcnblddQg76t_k-72" value="" style="shape=tableRow;horizontal=0;startSize=0;swimlaneHead=0;swimlaneBody=0;fillColor=none;collapsible=0;dropTarget=0;points=[[0,0.5],[1,0.5]];portConstraint=eastwest;top=0;left=0;right=0;bottom=0;" parent="n4LRzQkcnblddQg76t_k-53" vertex="1">
          <mxGeometry y="120" width="220" height="30" as="geometry" />
        </mxCell>
        <mxCell id="n4LRzQkcnblddQg76t_k-73" value="" style="shape=partialRectangle;connectable=0;fillColor=none;top=0;left=0;bottom=0;right=0;editable=1;overflow=hidden;whiteSpace=wrap;html=1;" parent="n4LRzQkcnblddQg76t_k-72" vertex="1">
          <mxGeometry width="50.000000000000114" height="30" as="geometry">
            <mxRectangle width="50.000000000000114" height="30" as="alternateBounds" />
          </mxGeometry>
        </mxCell>
        <mxCell id="n4LRzQkcnblddQg76t_k-74" value="orientacao: varchar(51)" style="shape=partialRectangle;connectable=0;fillColor=none;top=0;left=0;bottom=0;right=0;align=left;spacingLeft=6;overflow=hidden;whiteSpace=wrap;html=1;" parent="n4LRzQkcnblddQg76t_k-72" vertex="1">
          <mxGeometry x="50.000000000000114" width="169.9999999999999" height="30" as="geometry">
            <mxRectangle width="169.9999999999999" height="30" as="alternateBounds" />
          </mxGeometry>
        </mxCell>
        <mxCell id="4oyuGeK-MgONDNF4wXng-4" value="" style="shape=tableRow;horizontal=0;startSize=0;swimlaneHead=0;swimlaneBody=0;fillColor=none;collapsible=0;dropTarget=0;points=[[0,0.5],[1,0.5]];portConstraint=eastwest;top=0;left=0;right=0;bottom=0;" parent="n4LRzQkcnblddQg76t_k-53" vertex="1">
          <mxGeometry y="150" width="220" height="30" as="geometry" />
        </mxCell>
        <mxCell id="4oyuGeK-MgONDNF4wXng-5" value="" style="shape=partialRectangle;connectable=0;fillColor=none;top=0;left=0;bottom=0;right=0;editable=1;overflow=hidden;whiteSpace=wrap;html=1;" parent="4oyuGeK-MgONDNF4wXng-4" vertex="1">
          <mxGeometry width="50.000000000000114" height="30" as="geometry">
            <mxRectangle width="50.000000000000114" height="30" as="alternateBounds" />
          </mxGeometry>
        </mxCell>
        <mxCell id="4oyuGeK-MgONDNF4wXng-6" value="nivel: varchar(40)" style="shape=partialRectangle;connectable=0;fillColor=none;top=0;left=0;bottom=0;right=0;align=left;spacingLeft=6;overflow=hidden;whiteSpace=wrap;html=1;" parent="4oyuGeK-MgONDNF4wXng-4" vertex="1">
          <mxGeometry x="50.000000000000114" width="169.9999999999999" height="30" as="geometry">
            <mxRectangle width="169.9999999999999" height="30" as="alternateBounds" />
          </mxGeometry>
        </mxCell>
        <mxCell id="d4IoXGVJl8mM1OjRE6fw-1" value="" style="shape=tableRow;horizontal=0;startSize=0;swimlaneHead=0;swimlaneBody=0;fillColor=none;collapsible=0;dropTarget=0;points=[[0,0.5],[1,0.5]];portConstraint=eastwest;top=0;left=0;right=0;bottom=0;" parent="n4LRzQkcnblddQg76t_k-53" vertex="1">
          <mxGeometry y="180" width="220" height="30" as="geometry" />
        </mxCell>
        <mxCell id="d4IoXGVJl8mM1OjRE6fw-2" value="" style="shape=partialRectangle;connectable=0;fillColor=none;top=0;left=0;bottom=0;right=0;editable=1;overflow=hidden;whiteSpace=wrap;html=1;" parent="d4IoXGVJl8mM1OjRE6fw-1" vertex="1">
          <mxGeometry width="50.000000000000114" height="30" as="geometry">
            <mxRectangle width="50.000000000000114" height="30" as="alternateBounds" />
          </mxGeometry>
        </mxCell>
        <mxCell id="d4IoXGVJl8mM1OjRE6fw-3" value="oferta: varchar(51)" style="shape=partialRectangle;connectable=0;fillColor=none;top=0;left=0;bottom=0;right=0;align=left;spacingLeft=6;overflow=hidden;whiteSpace=wrap;html=1;" parent="d4IoXGVJl8mM1OjRE6fw-1" vertex="1">
          <mxGeometry x="50.000000000000114" width="169.9999999999999" height="30" as="geometry">
            <mxRectangle width="169.9999999999999" height="30" as="alternateBounds" />
          </mxGeometry>
        </mxCell>
        <mxCell id="zQJEWNravxv3EQ5oGD9E-9" value="" style="shape=tableRow;horizontal=0;startSize=0;swimlaneHead=0;swimlaneBody=0;fillColor=none;collapsible=0;dropTarget=0;points=[[0,0.5],[1,0.5]];portConstraint=eastwest;top=0;left=0;right=0;bottom=0;" parent="n4LRzQkcnblddQg76t_k-53" vertex="1">
          <mxGeometry y="210" width="220" height="30" as="geometry" />
        </mxCell>
        <mxCell id="zQJEWNravxv3EQ5oGD9E-10" value="*" style="shape=partialRectangle;connectable=0;fillColor=none;top=0;left=0;bottom=0;right=0;editable=1;overflow=hidden;whiteSpace=wrap;html=1;" parent="zQJEWNravxv3EQ5oGD9E-9" vertex="1">
          <mxGeometry width="50.000000000000114" height="30" as="geometry">
            <mxRectangle width="50.000000000000114" height="30" as="alternateBounds" />
          </mxGeometry>
        </mxCell>
        <mxCell id="zQJEWNravxv3EQ5oGD9E-11" value="curso: varchar(120)" style="shape=partialRectangle;connectable=0;fillColor=none;top=0;left=0;bottom=0;right=0;align=left;spacingLeft=6;overflow=hidden;whiteSpace=wrap;html=1;" parent="zQJEWNravxv3EQ5oGD9E-9" vertex="1">
          <mxGeometry x="50.000000000000114" width="169.9999999999999" height="30" as="geometry">
            <mxRectangle width="169.9999999999999" height="30" as="alternateBounds" />
          </mxGeometry>
        </mxCell>
        <mxCell id="n4LRzQkcnblddQg76t_k-69" value="" style="shape=tableRow;horizontal=0;startSize=0;swimlaneHead=0;swimlaneBody=0;fillColor=none;collapsible=0;dropTarget=0;points=[[0,0.5],[1,0.5]];portConstraint=eastwest;top=0;left=0;right=0;bottom=0;" parent="n4LRzQkcnblddQg76t_k-53" vertex="1">
          <mxGeometry y="240" width="220" height="30" as="geometry" />
        </mxCell>
        <mxCell id="n4LRzQkcnblddQg76t_k-70" value="*" style="shape=partialRectangle;connectable=0;fillColor=none;top=0;left=0;bottom=0;right=0;editable=1;overflow=hidden;whiteSpace=wrap;html=1;" parent="n4LRzQkcnblddQg76t_k-69" vertex="1">
          <mxGeometry width="50.000000000000114" height="30" as="geometry">
            <mxRectangle width="50.000000000000114" height="30" as="alternateBounds" />
          </mxGeometry>
        </mxCell>
        <mxCell id="n4LRzQkcnblddQg76t_k-71" value="tipologia: varchar(3)" style="shape=partialRectangle;connectable=0;fillColor=none;top=0;left=0;bottom=0;right=0;align=left;spacingLeft=6;overflow=hidden;whiteSpace=wrap;html=1;" parent="n4LRzQkcnblddQg76t_k-69" vertex="1">
          <mxGeometry x="50.000000000000114" width="169.9999999999999" height="30" as="geometry">
            <mxRectangle width="169.9999999999999" height="30" as="alternateBounds" />
          </mxGeometry>
        </mxCell>
        <mxCell id="4oyuGeK-MgONDNF4wXng-1" value="" style="shape=tableRow;horizontal=0;startSize=0;swimlaneHead=0;swimlaneBody=0;fillColor=none;collapsible=0;dropTarget=0;points=[[0,0.5],[1,0.5]];portConstraint=eastwest;top=0;left=0;right=0;bottom=0;" parent="n4LRzQkcnblddQg76t_k-53" vertex="1">
          <mxGeometry y="270" width="220" height="30" as="geometry" />
        </mxCell>
        <mxCell id="4oyuGeK-MgONDNF4wXng-2" value="*" style="shape=partialRectangle;connectable=0;fillColor=none;top=0;left=0;bottom=0;right=0;editable=1;overflow=hidden;whiteSpace=wrap;html=1;" parent="4oyuGeK-MgONDNF4wXng-1" vertex="1">
          <mxGeometry width="50.000000000000114" height="30" as="geometry">
            <mxRectangle width="50.000000000000114" height="30" as="alternateBounds" />
          </mxGeometry>
        </mxCell>
        <mxCell id="4oyuGeK-MgONDNF4wXng-3" value="ano: varchar(10)" style="shape=partialRectangle;connectable=0;fillColor=none;top=0;left=0;bottom=0;right=0;align=left;spacingLeft=6;overflow=hidden;whiteSpace=wrap;html=1;" parent="4oyuGeK-MgONDNF4wXng-1" vertex="1">
          <mxGeometry x="50.000000000000114" width="169.9999999999999" height="30" as="geometry">
            <mxRectangle width="169.9999999999999" height="30" as="alternateBounds" />
          </mxGeometry>
        </mxCell>
        <mxCell id="4oyuGeK-MgONDNF4wXng-7" value="" style="shape=tableRow;horizontal=0;startSize=0;swimlaneHead=0;swimlaneBody=0;fillColor=none;collapsible=0;dropTarget=0;points=[[0,0.5],[1,0.5]];portConstraint=eastwest;top=0;left=0;right=0;bottom=0;" parent="n4LRzQkcnblddQg76t_k-53" vertex="1">
          <mxGeometry y="300" width="220" height="30" as="geometry" />
        </mxCell>
        <mxCell id="4oyuGeK-MgONDNF4wXng-8" value="*" style="shape=partialRectangle;connectable=0;fillColor=none;top=0;left=0;bottom=0;right=0;editable=1;overflow=hidden;whiteSpace=wrap;html=1;" parent="4oyuGeK-MgONDNF4wXng-7" vertex="1">
          <mxGeometry width="50.000000000000114" height="30" as="geometry">
            <mxRectangle width="50.000000000000114" height="30" as="alternateBounds" />
          </mxGeometry>
        </mxCell>
        <mxCell id="4oyuGeK-MgONDNF4wXng-9" value="ciclo: varchar(51)" style="shape=partialRectangle;connectable=0;fillColor=none;top=0;left=0;bottom=0;right=0;align=left;spacingLeft=6;overflow=hidden;whiteSpace=wrap;html=1;" parent="4oyuGeK-MgONDNF4wXng-7" vertex="1">
          <mxGeometry x="50.000000000000114" width="169.9999999999999" height="30" as="geometry">
            <mxRectangle width="169.9999999999999" height="30" as="alternateBounds" />
          </mxGeometry>
        </mxCell>
        <mxCell id="zQJEWNravxv3EQ5oGD9E-12" value="" style="shape=tableRow;horizontal=0;startSize=0;swimlaneHead=0;swimlaneBody=0;fillColor=none;collapsible=0;dropTarget=0;points=[[0,0.5],[1,0.5]];portConstraint=eastwest;top=0;left=0;right=0;bottom=0;" parent="n4LRzQkcnblddQg76t_k-53" vertex="1">
          <mxGeometry y="330" width="220" height="30" as="geometry" />
        </mxCell>
        <mxCell id="zQJEWNravxv3EQ5oGD9E-13" value="*" style="shape=partialRectangle;connectable=0;fillColor=none;top=0;left=0;bottom=0;right=0;editable=1;overflow=hidden;whiteSpace=wrap;html=1;" parent="zQJEWNravxv3EQ5oGD9E-12" vertex="1">
          <mxGeometry width="50.000000000000114" height="30" as="geometry">
            <mxRectangle width="50.000000000000114" height="30" as="alternateBounds" />
          </mxGeometry>
        </mxCell>
        <mxCell id="zQJEWNravxv3EQ5oGD9E-14" value="organizacao: varchar(51)" style="shape=partialRectangle;connectable=0;fillColor=none;top=0;left=0;bottom=0;right=0;align=left;spacingLeft=6;overflow=hidden;whiteSpace=wrap;html=1;" parent="zQJEWNravxv3EQ5oGD9E-12" vertex="1">
          <mxGeometry x="50.000000000000114" width="169.9999999999999" height="30" as="geometry">
            <mxRectangle width="169.9999999999999" height="30" as="alternateBounds" />
          </mxGeometry>
        </mxCell>
        <mxCell id="HBgyyXUhadhm95LxqLLa-34" value="" style="shape=tableRow;horizontal=0;startSize=0;swimlaneHead=0;swimlaneBody=0;fillColor=none;collapsible=0;dropTarget=0;points=[[0,0.5],[1,0.5]];portConstraint=eastwest;top=0;left=0;right=0;bottom=0;" parent="n4LRzQkcnblddQg76t_k-53" vertex="1">
          <mxGeometry y="360" width="220" height="30" as="geometry" />
        </mxCell>
        <mxCell id="HBgyyXUhadhm95LxqLLa-35" value="FK2*" style="shape=partialRectangle;connectable=0;fillColor=none;top=0;left=0;bottom=0;right=0;editable=1;overflow=hidden;whiteSpace=wrap;html=1;" parent="HBgyyXUhadhm95LxqLLa-34" vertex="1">
          <mxGeometry width="50.000000000000114" height="30" as="geometry">
            <mxRectangle width="50.000000000000114" height="30" as="alternateBounds" />
          </mxGeometry>
        </mxCell>
        <mxCell id="HBgyyXUhadhm95LxqLLa-36" value="entidadeEscola: int" style="shape=partialRectangle;connectable=0;fillColor=none;top=0;left=0;bottom=0;right=0;align=left;spacingLeft=6;overflow=hidden;whiteSpace=wrap;html=1;" parent="HBgyyXUhadhm95LxqLLa-34" vertex="1">
          <mxGeometry x="50.000000000000114" width="169.9999999999999" height="30" as="geometry">
            <mxRectangle width="169.9999999999999" height="30" as="alternateBounds" />
          </mxGeometry>
        </mxCell>
        <mxCell id="n4LRzQkcnblddQg76t_k-97" value="Alunos" style="shape=table;startSize=30;container=1;collapsible=1;childLayout=tableLayout;fixedRows=1;rowLines=0;fontStyle=1;align=center;resizeLast=1;html=1;" parent="1" vertex="1">
          <mxGeometry x="40" y="660" width="220" height="120" as="geometry" />
        </mxCell>
        <mxCell id="n4LRzQkcnblddQg76t_k-109" value="" style="shape=tableRow;horizontal=0;startSize=0;swimlaneHead=0;swimlaneBody=0;fillColor=none;collapsible=0;dropTarget=0;points=[[0,0.5],[1,0.5]];portConstraint=eastwest;top=0;left=0;right=0;bottom=0;" parent="n4LRzQkcnblddQg76t_k-97" vertex="1">
          <mxGeometry y="30" width="220" height="30" as="geometry" />
        </mxCell>
        <mxCell id="n4LRzQkcnblddQg76t_k-110" value="FK1" style="shape=partialRectangle;connectable=0;fillColor=none;top=0;left=0;bottom=0;right=0;editable=1;overflow=hidden;whiteSpace=wrap;html=1;" parent="n4LRzQkcnblddQg76t_k-109" vertex="1">
          <mxGeometry width="50.000000000000114" height="30" as="geometry">
            <mxRectangle width="50.000000000000114" height="30" as="alternateBounds" />
          </mxGeometry>
        </mxCell>
        <mxCell id="n4LRzQkcnblddQg76t_k-111" value="turma: int" style="shape=partialRectangle;connectable=0;fillColor=none;top=0;left=0;bottom=0;right=0;align=left;spacingLeft=6;overflow=hidden;whiteSpace=wrap;html=1;" parent="n4LRzQkcnblddQg76t_k-109" vertex="1">
          <mxGeometry x="50.000000000000114" width="169.9999999999999" height="30" as="geometry">
            <mxRectangle width="169.9999999999999" height="30" as="alternateBounds" />
          </mxGeometry>
        </mxCell>
        <mxCell id="n4LRzQkcnblddQg76t_k-101" value="" style="shape=tableRow;horizontal=0;startSize=0;swimlaneHead=0;swimlaneBody=0;fillColor=none;collapsible=0;dropTarget=0;points=[[0,0.5],[1,0.5]];portConstraint=eastwest;top=0;left=0;right=0;bottom=0;" parent="n4LRzQkcnblddQg76t_k-97" vertex="1">
          <mxGeometry y="60" width="220" height="30" as="geometry" />
        </mxCell>
        <mxCell id="n4LRzQkcnblddQg76t_k-102" value="" style="shape=partialRectangle;connectable=0;fillColor=none;top=0;left=0;bottom=0;right=0;editable=1;overflow=hidden;whiteSpace=wrap;html=1;" parent="n4LRzQkcnblddQg76t_k-101" vertex="1">
          <mxGeometry width="50.000000000000114" height="30" as="geometry">
            <mxRectangle width="50.000000000000114" height="30" as="alternateBounds" />
          </mxGeometry>
        </mxCell>
        <mxCell id="n4LRzQkcnblddQg76t_k-103" value="sexo: char(1)" style="shape=partialRectangle;connectable=0;fillColor=none;top=0;left=0;bottom=0;right=0;align=left;spacingLeft=6;overflow=hidden;whiteSpace=wrap;html=1;" parent="n4LRzQkcnblddQg76t_k-101" vertex="1">
          <mxGeometry x="50.000000000000114" width="169.9999999999999" height="30" as="geometry">
            <mxRectangle width="169.9999999999999" height="30" as="alternateBounds" />
          </mxGeometry>
        </mxCell>
        <mxCell id="n4LRzQkcnblddQg76t_k-104" value="" style="shape=tableRow;horizontal=0;startSize=0;swimlaneHead=0;swimlaneBody=0;fillColor=none;collapsible=0;dropTarget=0;points=[[0,0.5],[1,0.5]];portConstraint=eastwest;top=0;left=0;right=0;bottom=0;" parent="n4LRzQkcnblddQg76t_k-97" vertex="1">
          <mxGeometry y="90" width="220" height="30" as="geometry" />
        </mxCell>
        <mxCell id="n4LRzQkcnblddQg76t_k-105" value="" style="shape=partialRectangle;connectable=0;fillColor=none;top=0;left=0;bottom=0;right=0;editable=1;overflow=hidden;whiteSpace=wrap;html=1;" parent="n4LRzQkcnblddQg76t_k-104" vertex="1">
          <mxGeometry width="50.000000000000114" height="30" as="geometry">
            <mxRectangle width="50.000000000000114" height="30" as="alternateBounds" />
          </mxGeometry>
        </mxCell>
        <mxCell id="n4LRzQkcnblddQg76t_k-106" value="quantidade: int" style="shape=partialRectangle;connectable=0;fillColor=none;top=0;left=0;bottom=0;right=0;align=left;spacingLeft=6;overflow=hidden;whiteSpace=wrap;html=1;" parent="n4LRzQkcnblddQg76t_k-104" vertex="1">
          <mxGeometry x="50.000000000000114" width="169.9999999999999" height="30" as="geometry">
            <mxRectangle width="169.9999999999999" height="30" as="alternateBounds" />
          </mxGeometry>
        </mxCell>
        <mxCell id="n4LRzQkcnblddQg76t_k-113" value="Concelhos" style="shape=table;startSize=30;container=1;collapsible=1;childLayout=tableLayout;fixedRows=1;rowLines=0;fontStyle=1;align=center;resizeLast=1;html=1;" parent="1" vertex="1">
          <mxGeometry x="520" y="180" width="220" height="150" as="geometry" />
        </mxCell>
        <mxCell id="n4LRzQkcnblddQg76t_k-114" value="" style="shape=tableRow;horizontal=0;startSize=0;swimlaneHead=0;swimlaneBody=0;fillColor=none;collapsible=0;dropTarget=0;points=[[0,0.5],[1,0.5]];portConstraint=eastwest;top=0;left=0;right=0;bottom=1;" parent="n4LRzQkcnblddQg76t_k-113" vertex="1">
          <mxGeometry y="30" width="220" height="30" as="geometry" />
        </mxCell>
        <mxCell id="n4LRzQkcnblddQg76t_k-115" value="PK" style="shape=partialRectangle;connectable=0;fillColor=none;top=0;left=0;bottom=0;right=0;fontStyle=1;overflow=hidden;whiteSpace=wrap;html=1;" parent="n4LRzQkcnblddQg76t_k-114" vertex="1">
          <mxGeometry width="50.000000000000114" height="30" as="geometry">
            <mxRectangle width="50.000000000000114" height="30" as="alternateBounds" />
          </mxGeometry>
        </mxCell>
        <mxCell id="n4LRzQkcnblddQg76t_k-116" value="cod: int" style="shape=partialRectangle;connectable=0;fillColor=none;top=0;left=0;bottom=0;right=0;align=left;spacingLeft=6;fontStyle=5;overflow=hidden;whiteSpace=wrap;html=1;" parent="n4LRzQkcnblddQg76t_k-114" vertex="1">
          <mxGeometry x="50.000000000000114" width="169.9999999999999" height="30" as="geometry">
            <mxRectangle width="169.9999999999999" height="30" as="alternateBounds" />
          </mxGeometry>
        </mxCell>
        <mxCell id="n4LRzQkcnblddQg76t_k-117" value="" style="shape=tableRow;horizontal=0;startSize=0;swimlaneHead=0;swimlaneBody=0;fillColor=none;collapsible=0;dropTarget=0;points=[[0,0.5],[1,0.5]];portConstraint=eastwest;top=0;left=0;right=0;bottom=0;" parent="n4LRzQkcnblddQg76t_k-113" vertex="1">
          <mxGeometry y="60" width="220" height="30" as="geometry" />
        </mxCell>
        <mxCell id="n4LRzQkcnblddQg76t_k-118" value="" style="shape=partialRectangle;connectable=0;fillColor=none;top=0;left=0;bottom=0;right=0;editable=1;overflow=hidden;whiteSpace=wrap;html=1;" parent="n4LRzQkcnblddQg76t_k-117" vertex="1">
          <mxGeometry width="50.000000000000114" height="30" as="geometry">
            <mxRectangle width="50.000000000000114" height="30" as="alternateBounds" />
          </mxGeometry>
        </mxCell>
        <mxCell id="n4LRzQkcnblddQg76t_k-119" value="concelho: varchar(51)" style="shape=partialRectangle;connectable=0;fillColor=none;top=0;left=0;bottom=0;right=0;align=left;spacingLeft=6;overflow=hidden;whiteSpace=wrap;html=1;" parent="n4LRzQkcnblddQg76t_k-117" vertex="1">
          <mxGeometry x="50.000000000000114" width="169.9999999999999" height="30" as="geometry">
            <mxRectangle width="169.9999999999999" height="30" as="alternateBounds" />
          </mxGeometry>
        </mxCell>
        <mxCell id="n4LRzQkcnblddQg76t_k-124" value="" style="shape=tableRow;horizontal=0;startSize=0;swimlaneHead=0;swimlaneBody=0;fillColor=none;collapsible=0;dropTarget=0;points=[[0,0.5],[1,0.5]];portConstraint=eastwest;top=0;left=0;right=0;bottom=0;" parent="n4LRzQkcnblddQg76t_k-113" vertex="1">
          <mxGeometry y="90" width="220" height="30" as="geometry" />
        </mxCell>
        <mxCell id="n4LRzQkcnblddQg76t_k-125" value="FK1" style="shape=partialRectangle;connectable=0;fillColor=none;top=0;left=0;bottom=0;right=0;editable=1;overflow=hidden;whiteSpace=wrap;html=1;" parent="n4LRzQkcnblddQg76t_k-124" vertex="1">
          <mxGeometry width="50.000000000000114" height="30" as="geometry">
            <mxRectangle width="50.000000000000114" height="30" as="alternateBounds" />
          </mxGeometry>
        </mxCell>
        <mxCell id="n4LRzQkcnblddQg76t_k-126" value="NUTSIII: int" style="shape=partialRectangle;connectable=0;fillColor=none;top=0;left=0;bottom=0;right=0;align=left;spacingLeft=6;overflow=hidden;whiteSpace=wrap;html=1;" parent="n4LRzQkcnblddQg76t_k-124" vertex="1">
          <mxGeometry x="50.000000000000114" width="169.9999999999999" height="30" as="geometry">
            <mxRectangle width="169.9999999999999" height="30" as="alternateBounds" />
          </mxGeometry>
        </mxCell>
        <mxCell id="n4LRzQkcnblddQg76t_k-159" value="" style="shape=tableRow;horizontal=0;startSize=0;swimlaneHead=0;swimlaneBody=0;fillColor=none;collapsible=0;dropTarget=0;points=[[0,0.5],[1,0.5]];portConstraint=eastwest;top=0;left=0;right=0;bottom=0;" parent="n4LRzQkcnblddQg76t_k-113" vertex="1">
          <mxGeometry y="120" width="220" height="30" as="geometry" />
        </mxCell>
        <mxCell id="n4LRzQkcnblddQg76t_k-160" value="FK2" style="shape=partialRectangle;connectable=0;fillColor=none;top=0;left=0;bottom=0;right=0;editable=1;overflow=hidden;whiteSpace=wrap;html=1;" parent="n4LRzQkcnblddQg76t_k-159" vertex="1">
          <mxGeometry width="50.000000000000114" height="30" as="geometry">
            <mxRectangle width="50.000000000000114" height="30" as="alternateBounds" />
          </mxGeometry>
        </mxCell>
        <mxCell id="n4LRzQkcnblddQg76t_k-161" value="distrito: int" style="shape=partialRectangle;connectable=0;fillColor=none;top=0;left=0;bottom=0;right=0;align=left;spacingLeft=6;overflow=hidden;whiteSpace=wrap;html=1;" parent="n4LRzQkcnblddQg76t_k-159" vertex="1">
          <mxGeometry x="50.000000000000114" width="169.9999999999999" height="30" as="geometry">
            <mxRectangle width="169.9999999999999" height="30" as="alternateBounds" />
          </mxGeometry>
        </mxCell>
        <mxCell id="n4LRzQkcnblddQg76t_k-127" value="NUTS_III" style="shape=table;startSize=30;container=1;collapsible=1;childLayout=tableLayout;fixedRows=1;rowLines=0;fontStyle=1;align=center;resizeLast=1;html=1;" parent="1" vertex="1">
          <mxGeometry x="520" y="30" width="220" height="120" as="geometry" />
        </mxCell>
        <mxCell id="n4LRzQkcnblddQg76t_k-128" value="" style="shape=tableRow;horizontal=0;startSize=0;swimlaneHead=0;swimlaneBody=0;fillColor=none;collapsible=0;dropTarget=0;points=[[0,0.5],[1,0.5]];portConstraint=eastwest;top=0;left=0;right=0;bottom=1;" parent="n4LRzQkcnblddQg76t_k-127" vertex="1">
          <mxGeometry y="30" width="220" height="30" as="geometry" />
        </mxCell>
        <mxCell id="n4LRzQkcnblddQg76t_k-129" value="PK" style="shape=partialRectangle;connectable=0;fillColor=none;top=0;left=0;bottom=0;right=0;fontStyle=1;overflow=hidden;whiteSpace=wrap;html=1;" parent="n4LRzQkcnblddQg76t_k-128" vertex="1">
          <mxGeometry width="50.000000000000114" height="30" as="geometry">
            <mxRectangle width="50.000000000000114" height="30" as="alternateBounds" />
          </mxGeometry>
        </mxCell>
        <mxCell id="n4LRzQkcnblddQg76t_k-130" value="cod: int" style="shape=partialRectangle;connectable=0;fillColor=none;top=0;left=0;bottom=0;right=0;align=left;spacingLeft=6;fontStyle=5;overflow=hidden;whiteSpace=wrap;html=1;" parent="n4LRzQkcnblddQg76t_k-128" vertex="1">
          <mxGeometry x="50.000000000000114" width="169.9999999999999" height="30" as="geometry">
            <mxRectangle width="169.9999999999999" height="30" as="alternateBounds" />
          </mxGeometry>
        </mxCell>
        <mxCell id="n4LRzQkcnblddQg76t_k-131" value="" style="shape=tableRow;horizontal=0;startSize=0;swimlaneHead=0;swimlaneBody=0;fillColor=none;collapsible=0;dropTarget=0;points=[[0,0.5],[1,0.5]];portConstraint=eastwest;top=0;left=0;right=0;bottom=0;" parent="n4LRzQkcnblddQg76t_k-127" vertex="1">
          <mxGeometry y="60" width="220" height="30" as="geometry" />
        </mxCell>
        <mxCell id="n4LRzQkcnblddQg76t_k-132" value="" style="shape=partialRectangle;connectable=0;fillColor=none;top=0;left=0;bottom=0;right=0;editable=1;overflow=hidden;whiteSpace=wrap;html=1;" parent="n4LRzQkcnblddQg76t_k-131" vertex="1">
          <mxGeometry width="50.000000000000114" height="30" as="geometry">
            <mxRectangle width="50.000000000000114" height="30" as="alternateBounds" />
          </mxGeometry>
        </mxCell>
        <mxCell id="n4LRzQkcnblddQg76t_k-133" value="NUTIII: varchar(30)" style="shape=partialRectangle;connectable=0;fillColor=none;top=0;left=0;bottom=0;right=0;align=left;spacingLeft=6;overflow=hidden;whiteSpace=wrap;html=1;" parent="n4LRzQkcnblddQg76t_k-131" vertex="1">
          <mxGeometry x="50.000000000000114" width="169.9999999999999" height="30" as="geometry">
            <mxRectangle width="169.9999999999999" height="30" as="alternateBounds" />
          </mxGeometry>
        </mxCell>
        <mxCell id="HBgyyXUhadhm95LxqLLa-20" value="" style="shape=tableRow;horizontal=0;startSize=0;swimlaneHead=0;swimlaneBody=0;fillColor=none;collapsible=0;dropTarget=0;points=[[0,0.5],[1,0.5]];portConstraint=eastwest;top=0;left=0;right=0;bottom=0;" parent="n4LRzQkcnblddQg76t_k-127" vertex="1">
          <mxGeometry y="90" width="220" height="30" as="geometry" />
        </mxCell>
        <mxCell id="HBgyyXUhadhm95LxqLLa-21" value="FK1" style="shape=partialRectangle;connectable=0;fillColor=none;top=0;left=0;bottom=0;right=0;editable=1;overflow=hidden;whiteSpace=wrap;html=1;" parent="HBgyyXUhadhm95LxqLLa-20" vertex="1">
          <mxGeometry width="50.000000000000114" height="30" as="geometry">
            <mxRectangle width="50.000000000000114" height="30" as="alternateBounds" />
          </mxGeometry>
        </mxCell>
        <mxCell id="HBgyyXUhadhm95LxqLLa-22" value="NUTIII: int" style="shape=partialRectangle;connectable=0;fillColor=none;top=0;left=0;bottom=0;right=0;align=left;spacingLeft=6;overflow=hidden;whiteSpace=wrap;html=1;" parent="HBgyyXUhadhm95LxqLLa-20" vertex="1">
          <mxGeometry x="50.000000000000114" width="169.9999999999999" height="30" as="geometry">
            <mxRectangle width="169.9999999999999" height="30" as="alternateBounds" />
          </mxGeometry>
        </mxCell>
        <mxCell id="n4LRzQkcnblddQg76t_k-149" value="Distritos" style="shape=table;startSize=30;container=1;collapsible=1;childLayout=tableLayout;fixedRows=1;rowLines=0;fontStyle=1;align=center;resizeLast=1;html=1;" parent="1" vertex="1">
          <mxGeometry x="80" y="210" width="220" height="90" as="geometry" />
        </mxCell>
        <mxCell id="n4LRzQkcnblddQg76t_k-150" value="" style="shape=tableRow;horizontal=0;startSize=0;swimlaneHead=0;swimlaneBody=0;fillColor=none;collapsible=0;dropTarget=0;points=[[0,0.5],[1,0.5]];portConstraint=eastwest;top=0;left=0;right=0;bottom=1;" parent="n4LRzQkcnblddQg76t_k-149" vertex="1">
          <mxGeometry y="30" width="220" height="30" as="geometry" />
        </mxCell>
        <mxCell id="n4LRzQkcnblddQg76t_k-151" value="PK" style="shape=partialRectangle;connectable=0;fillColor=none;top=0;left=0;bottom=0;right=0;fontStyle=1;overflow=hidden;whiteSpace=wrap;html=1;" parent="n4LRzQkcnblddQg76t_k-150" vertex="1">
          <mxGeometry width="50.000000000000114" height="30" as="geometry">
            <mxRectangle width="50.000000000000114" height="30" as="alternateBounds" />
          </mxGeometry>
        </mxCell>
        <mxCell id="n4LRzQkcnblddQg76t_k-152" value="cod: int" style="shape=partialRectangle;connectable=0;fillColor=none;top=0;left=0;bottom=0;right=0;align=left;spacingLeft=6;fontStyle=5;overflow=hidden;whiteSpace=wrap;html=1;" parent="n4LRzQkcnblddQg76t_k-150" vertex="1">
          <mxGeometry x="50.000000000000114" width="169.9999999999999" height="30" as="geometry">
            <mxRectangle width="169.9999999999999" height="30" as="alternateBounds" />
          </mxGeometry>
        </mxCell>
        <mxCell id="n4LRzQkcnblddQg76t_k-153" value="" style="shape=tableRow;horizontal=0;startSize=0;swimlaneHead=0;swimlaneBody=0;fillColor=none;collapsible=0;dropTarget=0;points=[[0,0.5],[1,0.5]];portConstraint=eastwest;top=0;left=0;right=0;bottom=0;" parent="n4LRzQkcnblddQg76t_k-149" vertex="1">
          <mxGeometry y="60" width="220" height="30" as="geometry" />
        </mxCell>
        <mxCell id="n4LRzQkcnblddQg76t_k-154" value="" style="shape=partialRectangle;connectable=0;fillColor=none;top=0;left=0;bottom=0;right=0;editable=1;overflow=hidden;whiteSpace=wrap;html=1;" parent="n4LRzQkcnblddQg76t_k-153" vertex="1">
          <mxGeometry width="50.000000000000114" height="30" as="geometry">
            <mxRectangle width="50.000000000000114" height="30" as="alternateBounds" />
          </mxGeometry>
        </mxCell>
        <mxCell id="n4LRzQkcnblddQg76t_k-155" value="distrito: varchar(30)" style="shape=partialRectangle;connectable=0;fillColor=none;top=0;left=0;bottom=0;right=0;align=left;spacingLeft=6;overflow=hidden;whiteSpace=wrap;html=1;" parent="n4LRzQkcnblddQg76t_k-153" vertex="1">
          <mxGeometry x="50.000000000000114" width="169.9999999999999" height="30" as="geometry">
            <mxRectangle width="169.9999999999999" height="30" as="alternateBounds" />
          </mxGeometry>
        </mxCell>
        <mxCell id="n4LRzQkcnblddQg76t_k-162" style="edgeStyle=orthogonalEdgeStyle;rounded=0;orthogonalLoop=1;jettySize=auto;html=1;exitX=0;exitY=0.5;exitDx=0;exitDy=0;entryX=1;entryY=0.5;entryDx=0;entryDy=0;" parent="1" source="n4LRzQkcnblddQg76t_k-159" target="n4LRzQkcnblddQg76t_k-150" edge="1">
          <mxGeometry relative="1" as="geometry" />
        </mxCell>
        <mxCell id="n4LRzQkcnblddQg76t_k-164" value="NUTS_II" style="shape=table;startSize=30;container=1;collapsible=1;childLayout=tableLayout;fixedRows=1;rowLines=0;fontStyle=1;align=center;resizeLast=1;html=1;" parent="1" vertex="1">
          <mxGeometry x="80" y="60" width="220" height="90" as="geometry" />
        </mxCell>
        <mxCell id="n4LRzQkcnblddQg76t_k-165" value="" style="shape=tableRow;horizontal=0;startSize=0;swimlaneHead=0;swimlaneBody=0;fillColor=none;collapsible=0;dropTarget=0;points=[[0,0.5],[1,0.5]];portConstraint=eastwest;top=0;left=0;right=0;bottom=1;" parent="n4LRzQkcnblddQg76t_k-164" vertex="1">
          <mxGeometry y="30" width="220" height="30" as="geometry" />
        </mxCell>
        <mxCell id="n4LRzQkcnblddQg76t_k-166" value="PK" style="shape=partialRectangle;connectable=0;fillColor=none;top=0;left=0;bottom=0;right=0;fontStyle=1;overflow=hidden;whiteSpace=wrap;html=1;" parent="n4LRzQkcnblddQg76t_k-165" vertex="1">
          <mxGeometry width="50.000000000000114" height="30" as="geometry">
            <mxRectangle width="50.000000000000114" height="30" as="alternateBounds" />
          </mxGeometry>
        </mxCell>
        <mxCell id="n4LRzQkcnblddQg76t_k-167" value="cod: int" style="shape=partialRectangle;connectable=0;fillColor=none;top=0;left=0;bottom=0;right=0;align=left;spacingLeft=6;fontStyle=5;overflow=hidden;whiteSpace=wrap;html=1;" parent="n4LRzQkcnblddQg76t_k-165" vertex="1">
          <mxGeometry x="50.000000000000114" width="169.9999999999999" height="30" as="geometry">
            <mxRectangle width="169.9999999999999" height="30" as="alternateBounds" />
          </mxGeometry>
        </mxCell>
        <mxCell id="n4LRzQkcnblddQg76t_k-168" value="" style="shape=tableRow;horizontal=0;startSize=0;swimlaneHead=0;swimlaneBody=0;fillColor=none;collapsible=0;dropTarget=0;points=[[0,0.5],[1,0.5]];portConstraint=eastwest;top=0;left=0;right=0;bottom=0;" parent="n4LRzQkcnblddQg76t_k-164" vertex="1">
          <mxGeometry y="60" width="220" height="30" as="geometry" />
        </mxCell>
        <mxCell id="n4LRzQkcnblddQg76t_k-169" value="" style="shape=partialRectangle;connectable=0;fillColor=none;top=0;left=0;bottom=0;right=0;editable=1;overflow=hidden;whiteSpace=wrap;html=1;" parent="n4LRzQkcnblddQg76t_k-168" vertex="1">
          <mxGeometry width="50.000000000000114" height="30" as="geometry">
            <mxRectangle width="50.000000000000114" height="30" as="alternateBounds" />
          </mxGeometry>
        </mxCell>
        <mxCell id="n4LRzQkcnblddQg76t_k-170" value="NUTII: varchar(30)" style="shape=partialRectangle;connectable=0;fillColor=none;top=0;left=0;bottom=0;right=0;align=left;spacingLeft=6;overflow=hidden;whiteSpace=wrap;html=1;" parent="n4LRzQkcnblddQg76t_k-168" vertex="1">
          <mxGeometry x="50.000000000000114" width="169.9999999999999" height="30" as="geometry">
            <mxRectangle width="169.9999999999999" height="30" as="alternateBounds" />
          </mxGeometry>
        </mxCell>
        <mxCell id="6HBEej55yQJjmta1yhJ1-14" style="edgeStyle=orthogonalEdgeStyle;rounded=0;orthogonalLoop=1;jettySize=auto;html=1;exitX=1;exitY=0.5;exitDx=0;exitDy=0;entryX=1;entryY=0.5;entryDx=0;entryDy=0;jumpStyle=arc;jumpSize=8;" parent="1" source="6HBEej55yQJjmta1yhJ1-1" target="n4LRzQkcnblddQg76t_k-114" edge="1">
          <mxGeometry relative="1" as="geometry" />
        </mxCell>
        <mxCell id="6HBEej55yQJjmta1yhJ1-16" style="edgeStyle=orthogonalEdgeStyle;rounded=0;orthogonalLoop=1;jettySize=auto;html=1;exitX=1;exitY=0.5;exitDx=0;exitDy=0;entryX=0;entryY=0.5;entryDx=0;entryDy=0;jumpStyle=arc;" parent="1" source="n4LRzQkcnblddQg76t_k-1" target="n4LRzQkcnblddQg76t_k-42" edge="1">
          <mxGeometry relative="1" as="geometry">
            <mxPoint x="290" y="785" as="targetPoint" />
          </mxGeometry>
        </mxCell>
        <mxCell id="6HBEej55yQJjmta1yhJ1-17" value="Sede" style="text;html=1;align=center;verticalAlign=middle;whiteSpace=wrap;rounded=0;rotation=0;" parent="1" vertex="1">
          <mxGeometry x="310" y="440" width="40" height="15" as="geometry" />
        </mxCell>
        <mxCell id="I8ep4knIVbzr4iCOStzU-8" style="edgeStyle=orthogonalEdgeStyle;rounded=0;orthogonalLoop=1;jettySize=auto;html=1;exitX=1;exitY=0.5;exitDx=0;exitDy=0;entryX=0;entryY=0.5;entryDx=0;entryDy=0;" parent="1" source="n4LRzQkcnblddQg76t_k-109" target="n4LRzQkcnblddQg76t_k-54" edge="1">
          <mxGeometry relative="1" as="geometry" />
        </mxCell>
        <mxCell id="IuU4bEoJgD58rKRUjpG8-2" style="edgeStyle=orthogonalEdgeStyle;rounded=0;orthogonalLoop=1;jettySize=auto;html=1;exitX=0;exitY=0.5;exitDx=0;exitDy=0;entryX=0;entryY=0.5;entryDx=0;entryDy=0;" parent="1" source="I8ep4knIVbzr4iCOStzU-4" target="NorvrO7SsuZGPJmOGKaD-21" edge="1">
          <mxGeometry relative="1" as="geometry" />
        </mxCell>
        <mxCell id="HBgyyXUhadhm95LxqLLa-2" value="Entidades" style="shape=table;startSize=30;container=1;collapsible=1;childLayout=tableLayout;fixedRows=1;rowLines=0;fontStyle=1;align=center;resizeLast=1;html=1;" parent="1" vertex="1">
          <mxGeometry x="780" y="395" width="220" height="90" as="geometry" />
        </mxCell>
        <mxCell id="HBgyyXUhadhm95LxqLLa-3" value="" style="shape=tableRow;horizontal=0;startSize=0;swimlaneHead=0;swimlaneBody=0;fillColor=none;collapsible=0;dropTarget=0;points=[[0,0.5],[1,0.5]];portConstraint=eastwest;top=0;left=0;right=0;bottom=1;" parent="HBgyyXUhadhm95LxqLLa-2" vertex="1">
          <mxGeometry y="30" width="220" height="30" as="geometry" />
        </mxCell>
        <mxCell id="HBgyyXUhadhm95LxqLLa-4" value="PK" style="shape=partialRectangle;connectable=0;fillColor=none;top=0;left=0;bottom=0;right=0;fontStyle=1;overflow=hidden;whiteSpace=wrap;html=1;" parent="HBgyyXUhadhm95LxqLLa-3" vertex="1">
          <mxGeometry width="50.000000000000114" height="30" as="geometry">
            <mxRectangle width="50.000000000000114" height="30" as="alternateBounds" />
          </mxGeometry>
        </mxCell>
        <mxCell id="HBgyyXUhadhm95LxqLLa-5" value="cod: int" style="shape=partialRectangle;connectable=0;fillColor=none;top=0;left=0;bottom=0;right=0;align=left;spacingLeft=6;fontStyle=5;overflow=hidden;whiteSpace=wrap;html=1;" parent="HBgyyXUhadhm95LxqLLa-3" vertex="1">
          <mxGeometry x="50.000000000000114" width="169.9999999999999" height="30" as="geometry">
            <mxRectangle width="169.9999999999999" height="30" as="alternateBounds" />
          </mxGeometry>
        </mxCell>
        <mxCell id="HBgyyXUhadhm95LxqLLa-6" value="" style="shape=tableRow;horizontal=0;startSize=0;swimlaneHead=0;swimlaneBody=0;fillColor=none;collapsible=0;dropTarget=0;points=[[0,0.5],[1,0.5]];portConstraint=eastwest;top=0;left=0;right=0;bottom=0;" parent="HBgyyXUhadhm95LxqLLa-2" vertex="1">
          <mxGeometry y="60" width="220" height="30" as="geometry" />
        </mxCell>
        <mxCell id="HBgyyXUhadhm95LxqLLa-7" value="" style="shape=partialRectangle;connectable=0;fillColor=none;top=0;left=0;bottom=0;right=0;editable=1;overflow=hidden;whiteSpace=wrap;html=1;" parent="HBgyyXUhadhm95LxqLLa-6" vertex="1">
          <mxGeometry width="50.000000000000114" height="30" as="geometry">
            <mxRectangle width="50.000000000000114" height="30" as="alternateBounds" />
          </mxGeometry>
        </mxCell>
        <mxCell id="HBgyyXUhadhm95LxqLLa-8" value="entidade: varchar(110)" style="shape=partialRectangle;connectable=0;fillColor=none;top=0;left=0;bottom=0;right=0;align=left;spacingLeft=6;overflow=hidden;whiteSpace=wrap;html=1;" parent="HBgyyXUhadhm95LxqLLa-6" vertex="1">
          <mxGeometry x="50.000000000000114" width="169.9999999999999" height="30" as="geometry">
            <mxRectangle width="169.9999999999999" height="30" as="alternateBounds" />
          </mxGeometry>
        </mxCell>
        <mxCell id="HBgyyXUhadhm95LxqLLa-18" style="edgeStyle=orthogonalEdgeStyle;rounded=0;orthogonalLoop=1;jettySize=auto;html=1;exitX=0;exitY=0.5;exitDx=0;exitDy=0;entryX=1;entryY=0.5;entryDx=0;entryDy=0;" parent="1" source="HBgyyXUhadhm95LxqLLa-20" target="n4LRzQkcnblddQg76t_k-165" edge="1">
          <mxGeometry relative="1" as="geometry" />
        </mxCell>
        <mxCell id="HBgyyXUhadhm95LxqLLa-23" style="edgeStyle=orthogonalEdgeStyle;rounded=0;orthogonalLoop=1;jettySize=auto;html=1;exitX=1;exitY=0.5;exitDx=0;exitDy=0;entryX=1;entryY=0.5;entryDx=0;entryDy=0;jumpStyle=arc;jumpSize=8;" parent="1" source="n4LRzQkcnblddQg76t_k-63" target="n4LRzQkcnblddQg76t_k-42" edge="1">
          <mxGeometry relative="1" as="geometry" />
        </mxCell>
        <mxCell id="HBgyyXUhadhm95LxqLLa-25" value="EntidadesEscola" style="shape=table;startSize=30;container=1;collapsible=1;childLayout=tableLayout;fixedRows=1;rowLines=0;fontStyle=1;align=center;resizeLast=1;html=1;" parent="1" vertex="1">
          <mxGeometry x="580" y="760" width="220" height="120" as="geometry" />
        </mxCell>
        <mxCell id="HBgyyXUhadhm95LxqLLa-26" value="" style="shape=tableRow;horizontal=0;startSize=0;swimlaneHead=0;swimlaneBody=0;fillColor=none;collapsible=0;dropTarget=0;points=[[0,0.5],[1,0.5]];portConstraint=eastwest;top=0;left=0;right=0;bottom=1;" parent="HBgyyXUhadhm95LxqLLa-25" vertex="1">
          <mxGeometry y="30" width="220" height="30" as="geometry" />
        </mxCell>
        <mxCell id="HBgyyXUhadhm95LxqLLa-27" value="PK" style="shape=partialRectangle;connectable=0;fillColor=none;top=0;left=0;bottom=0;right=0;fontStyle=1;overflow=hidden;whiteSpace=wrap;html=1;" parent="HBgyyXUhadhm95LxqLLa-26" vertex="1">
          <mxGeometry width="50.000000000000114" height="30" as="geometry">
            <mxRectangle width="50.000000000000114" height="30" as="alternateBounds" />
          </mxGeometry>
        </mxCell>
        <mxCell id="HBgyyXUhadhm95LxqLLa-28" value="cod: int" style="shape=partialRectangle;connectable=0;fillColor=none;top=0;left=0;bottom=0;right=0;align=left;spacingLeft=6;fontStyle=5;overflow=hidden;whiteSpace=wrap;html=1;" parent="HBgyyXUhadhm95LxqLLa-26" vertex="1">
          <mxGeometry x="50.000000000000114" width="169.9999999999999" height="30" as="geometry">
            <mxRectangle width="169.9999999999999" height="30" as="alternateBounds" />
          </mxGeometry>
        </mxCell>
        <mxCell id="HBgyyXUhadhm95LxqLLa-29" value="" style="shape=tableRow;horizontal=0;startSize=0;swimlaneHead=0;swimlaneBody=0;fillColor=none;collapsible=0;dropTarget=0;points=[[0,0.5],[1,0.5]];portConstraint=eastwest;top=0;left=0;right=0;bottom=0;" parent="HBgyyXUhadhm95LxqLLa-25" vertex="1">
          <mxGeometry y="60" width="220" height="30" as="geometry" />
        </mxCell>
        <mxCell id="HBgyyXUhadhm95LxqLLa-30" value="" style="shape=partialRectangle;connectable=0;fillColor=none;top=0;left=0;bottom=0;right=0;editable=1;overflow=hidden;whiteSpace=wrap;html=1;" parent="HBgyyXUhadhm95LxqLLa-29" vertex="1">
          <mxGeometry width="50.000000000000114" height="30" as="geometry">
            <mxRectangle width="50.000000000000114" height="30" as="alternateBounds" />
          </mxGeometry>
        </mxCell>
        <mxCell id="HBgyyXUhadhm95LxqLLa-31" value="entidade: varchar(110)" style="shape=partialRectangle;connectable=0;fillColor=none;top=0;left=0;bottom=0;right=0;align=left;spacingLeft=6;overflow=hidden;whiteSpace=wrap;html=1;" parent="HBgyyXUhadhm95LxqLLa-29" vertex="1">
          <mxGeometry x="50.000000000000114" width="169.9999999999999" height="30" as="geometry">
            <mxRectangle width="169.9999999999999" height="30" as="alternateBounds" />
          </mxGeometry>
        </mxCell>
        <mxCell id="HBgyyXUhadhm95LxqLLa-38" value="" style="shape=tableRow;horizontal=0;startSize=0;swimlaneHead=0;swimlaneBody=0;fillColor=none;collapsible=0;dropTarget=0;points=[[0,0.5],[1,0.5]];portConstraint=eastwest;top=0;left=0;right=0;bottom=0;" parent="HBgyyXUhadhm95LxqLLa-25" vertex="1">
          <mxGeometry y="90" width="220" height="30" as="geometry" />
        </mxCell>
        <mxCell id="HBgyyXUhadhm95LxqLLa-39" value="FK1" style="shape=partialRectangle;connectable=0;fillColor=none;top=0;left=0;bottom=0;right=0;editable=1;overflow=hidden;whiteSpace=wrap;html=1;" parent="HBgyyXUhadhm95LxqLLa-38" vertex="1">
          <mxGeometry width="50.000000000000114" height="30" as="geometry">
            <mxRectangle width="50.000000000000114" height="30" as="alternateBounds" />
          </mxGeometry>
        </mxCell>
        <mxCell id="HBgyyXUhadhm95LxqLLa-40" value="concelho: int" style="shape=partialRectangle;connectable=0;fillColor=none;top=0;left=0;bottom=0;right=0;align=left;spacingLeft=6;overflow=hidden;whiteSpace=wrap;html=1;" parent="HBgyyXUhadhm95LxqLLa-38" vertex="1">
          <mxGeometry x="50.000000000000114" width="169.9999999999999" height="30" as="geometry">
            <mxRectangle width="169.9999999999999" height="30" as="alternateBounds" />
          </mxGeometry>
        </mxCell>
        <mxCell id="HBgyyXUhadhm95LxqLLa-37" style="edgeStyle=orthogonalEdgeStyle;rounded=0;orthogonalLoop=1;jettySize=auto;html=1;exitX=1;exitY=0.5;exitDx=0;exitDy=0;entryX=0;entryY=0.5;entryDx=0;entryDy=0;" parent="1" source="HBgyyXUhadhm95LxqLLa-34" target="HBgyyXUhadhm95LxqLLa-26" edge="1">
          <mxGeometry relative="1" as="geometry" />
        </mxCell>
        <mxCell id="HBgyyXUhadhm95LxqLLa-44" style="edgeStyle=orthogonalEdgeStyle;rounded=0;orthogonalLoop=1;jettySize=auto;html=1;exitX=1;exitY=0.5;exitDx=0;exitDy=0;entryX=1;entryY=0.5;entryDx=0;entryDy=0;" parent="1" source="HBgyyXUhadhm95LxqLLa-38" target="n4LRzQkcnblddQg76t_k-114" edge="1">
          <mxGeometry relative="1" as="geometry">
            <Array as="points">
              <mxPoint x="800" y="800" />
              <mxPoint x="1050" y="800" />
              <mxPoint x="1050" y="225" />
            </Array>
          </mxGeometry>
        </mxCell>
        <mxCell id="HBgyyXUhadhm95LxqLLa-19" style="edgeStyle=orthogonalEdgeStyle;rounded=0;orthogonalLoop=1;jettySize=auto;html=1;exitX=1;exitY=0.5;exitDx=0;exitDy=0;entryX=1;entryY=0.5;entryDx=0;entryDy=0;jumpStyle=arc;jumpSize=8;" parent="1" source="n4LRzQkcnblddQg76t_k-124" target="n4LRzQkcnblddQg76t_k-128" edge="1">
          <mxGeometry relative="1" as="geometry">
            <Array as="points">
              <mxPoint x="780" y="285" />
              <mxPoint x="780" y="75" />
            </Array>
          </mxGeometry>
        </mxCell>
      </root>
    </mxGraphModel>
  </diagram>
</mxfile>
